<svg width="190" height="124" viewBox="0 0 190 124" fill="none" xmlns="http://www.w3.org/2000/svg">
<g clip-path="url(#clip0_126_841)">
<path d="M112.189 8.18396H91.1914V8.58324H112.189V8.18396Z" fill="#CCCCCC"/>
<path d="M74.7931 8.18396H8.19922V8.58324H74.7931V8.18396Z" fill="#CCCCCC"/>
<path d="M8.19916 16.5676C12.7274 16.5676 16.3983 12.9035 16.3983 8.38358C16.3983 3.86368 12.7274 0.199585 8.19916 0.199585C3.67089 0.199585 0 3.86368 0 8.38358C0 12.9035 3.67089 16.5676 8.19916 16.5676Z" fill="#6C63FF"/>
<path d="M45.5956 16.5676C50.1239 16.5676 53.7948 12.9035 53.7948 8.38358C53.7948 3.86368 50.1239 0.199585 45.5956 0.199585C41.0674 0.199585 37.3965 3.86368 37.3965 8.38358C37.3965 12.9035 41.0674 16.5676 45.5956 16.5676Z" fill="#3F3D56"/>
<path d="M82.9911 16.7675C81.3299 16.7675 79.7059 16.2758 78.3247 15.3546C76.9434 14.4334 75.8669 13.124 75.2312 11.5921C74.5954 10.0601 74.4291 8.37444 74.7532 6.74816C75.0773 5.12187 75.8772 3.62803 77.0519 2.45554C78.2266 1.28306 79.7232 0.484584 81.3525 0.161096C82.9818 -0.162393 84.6706 0.00363084 86.2053 0.638176C87.7401 1.27272 89.0519 2.34729 89.9748 3.72599C90.8978 5.10468 91.3904 6.72559 91.3904 8.38374C91.3904 10.6072 90.5054 12.7397 88.9303 14.3119C87.3551 15.8842 85.2187 16.7675 82.9911 16.7675ZM82.9911 0.399281C81.409 0.399281 79.8624 0.867563 78.5469 1.74491C77.2315 2.62225 76.2062 3.86925 75.6007 5.32822C74.9953 6.78719 74.8369 8.3926 75.1455 9.94144C75.4542 11.4903 76.216 12.913 77.3347 14.0296C78.4535 15.1463 79.8788 15.9067 81.4305 16.2148C82.9822 16.5229 84.5906 16.3647 86.0523 15.7604C87.5139 15.1561 88.7633 14.1327 89.6422 12.8197C90.5212 11.5066 90.9903 9.96292 90.9903 8.38374C90.9903 6.26613 90.1476 4.23525 88.6474 2.73788C87.1473 1.2405 85.1126 0.399281 82.9911 0.399281Z" fill="#CCCCCC"/>
<path d="M120.388 16.7675C118.726 16.7675 117.102 16.2758 115.721 15.3546C114.34 14.4334 113.263 13.124 112.628 11.5921C111.992 10.0601 111.826 8.37444 112.15 6.74816C112.474 5.12187 113.274 3.62803 114.448 2.45554C115.623 1.28306 117.12 0.484584 118.749 0.161096C120.378 -0.162393 122.067 0.00363084 123.602 0.638176C125.137 1.27272 126.448 2.34729 127.371 3.72599C128.294 5.10468 128.787 6.72559 128.787 8.38374C128.787 10.6072 127.902 12.7397 126.327 14.3119C124.752 15.8842 122.615 16.7675 120.388 16.7675ZM120.388 0.399281C118.805 0.399281 117.259 0.867563 115.943 1.74491C114.628 2.62225 113.603 3.86925 112.997 5.32822C112.392 6.78719 112.233 8.3926 112.542 9.94144C112.851 11.4903 113.613 12.913 114.731 14.0296C115.85 15.1463 117.275 15.9067 118.827 16.2148C120.379 16.5229 121.987 16.3647 123.449 15.7604C124.91 15.1561 126.16 14.1327 127.039 12.8197C127.918 11.5066 128.387 9.96292 128.387 8.38374C128.387 7.33521 128.18 6.29694 127.778 5.32822C127.376 4.3595 126.787 3.4793 126.044 2.73788C125.301 1.99645 124.419 1.40832 123.449 1.00706C122.478 0.605805 121.438 0.399281 120.388 0.399281Z" fill="#CCCCCC"/>
<path d="M7.56772 10.8237C7.42369 10.8238 7.28352 10.7772 7.16836 10.6908L7.16126 10.6855L5.65637 9.53659C5.51562 9.42888 5.42351 9.26976 5.40029 9.09426C5.37707 8.91875 5.42465 8.74123 5.53257 8.60074C5.64048 8.46025 5.79989 8.3683 5.97572 8.34513C6.15156 8.32196 6.32941 8.36945 6.47016 8.47717L7.4448 9.22324L9.74796 6.22389C9.85583 6.08347 10.0152 5.99157 10.1909 5.9684C10.3666 5.94522 10.5444 5.99268 10.6851 6.10032L10.6709 6.12003L10.6856 6.10032C10.8261 6.20813 10.9181 6.3672 10.9412 6.54262C10.9644 6.71804 10.9169 6.89547 10.8091 7.03595L8.09996 10.5621C8.03721 10.6434 7.95653 10.7092 7.86419 10.7543C7.77184 10.7995 7.67031 10.8227 7.56749 10.8223L7.56772 10.8237Z" fill="white"/>
<path d="M145.671 43.3958C145.824 43.4657 145.972 43.5477 146.112 43.6412L160.123 37.6721L160.623 33.9881L166.222 33.9537L165.891 42.4039L147.397 47.2863C147.358 47.4145 147.312 47.5402 147.257 47.6627C146.99 48.2322 146.56 48.7101 146.021 49.0365C145.483 49.3628 144.859 49.523 144.23 49.4969C143.6 49.4709 142.993 49.2597 142.483 48.89C141.973 48.5203 141.584 48.0085 141.365 47.4189C141.146 46.8293 141.106 46.1881 141.25 45.576C141.395 44.9638 141.718 44.408 142.178 43.9782C142.638 43.5485 143.215 43.264 143.836 43.1605C144.458 43.057 145.096 43.1391 145.671 43.3965L145.671 43.3958Z" fill="#FEB8B8"/>
<path d="M168.258 119.965H164.428L162.606 105.22H168.259L168.258 119.965Z" fill="#FEB8B8"/>
<path d="M161.693 118.873H169.079V123.514H157.042C157.042 122.283 157.532 121.102 158.404 120.231C159.276 119.361 160.459 118.872 161.693 118.872V118.873Z" fill="#2F2E41"/>
<path d="M183.153 118.885L179.341 119.26L176.08 104.764L181.705 104.212L183.153 118.885Z" fill="#FEB8B8"/>
<path d="M176.509 118.442L183.859 117.719L184.314 122.338L172.338 123.515C172.217 122.29 172.589 121.068 173.371 120.116C174.153 119.165 175.282 118.562 176.509 118.442H176.509Z" fill="#2F2E41"/>
<path d="M169.324 18.3482C173.562 18.3482 176.997 14.9194 176.997 10.6897C176.997 6.46007 173.562 3.03125 169.324 3.03125C165.087 3.03125 161.651 6.46007 161.651 10.6897C161.651 14.9194 165.087 18.3482 169.324 18.3482Z" fill="#FEB8B8"/>
<path d="M163.572 116.983C163.243 116.984 162.924 116.868 162.671 116.657C162.419 116.446 162.25 116.153 162.193 115.829C160.212 104.848 153.731 68.9321 153.575 67.9364C153.572 67.9136 153.57 67.8905 153.57 67.8673V65.1891C153.57 65.0916 153.601 64.9964 153.658 64.9171L154.513 63.7213C154.554 63.6637 154.608 63.6162 154.669 63.5824C154.731 63.5487 154.8 63.5295 154.871 63.5264C159.752 63.2981 175.734 62.6287 176.506 63.5915C177.281 64.5582 177.006 67.4915 176.943 68.0693L176.946 68.1295L184.127 113.966C184.183 114.332 184.093 114.705 183.876 115.005C183.659 115.304 183.332 115.506 182.966 115.567L178.482 116.305C178.148 116.358 177.805 116.29 177.517 116.113C177.229 115.936 177.014 115.662 176.912 115.34C175.525 110.916 170.873 96.0332 169.261 90.2741C169.253 90.2361 169.23 90.2028 169.198 90.1808C169.166 90.1588 169.126 90.1497 169.088 90.1553C169.049 90.1608 169.014 90.1807 168.989 90.2109C168.965 90.2412 168.953 90.2795 168.955 90.3184C169.035 95.8082 169.23 109.814 169.299 114.652L169.306 115.173C169.309 115.526 169.179 115.867 168.942 116.128C168.705 116.39 168.379 116.554 168.027 116.587L163.703 116.978C163.659 116.982 163.616 116.984 163.572 116.983Z" fill="#2F2E41"/>
<path d="M164.454 21.3597C163.115 22.1543 162.314 23.6141 161.854 25.1023C161.003 27.8529 160.491 30.6968 160.329 33.571L159.843 42.1765L153.827 64.9923C159.041 69.3954 162.048 68.3944 169.066 64.7929C176.084 61.1915 176.886 65.9937 176.886 65.9937L178.289 46.5805L180.294 25.3669C179.844 24.826 179.335 24.3371 178.775 23.9095C176.922 22.4708 174.766 21.4707 172.469 20.9846C170.173 20.4984 167.795 20.5389 165.517 21.1031L164.454 21.3597Z" fill="#E6E6E6"/>
<path d="M162.501 48.0035C162.662 48.0639 162.819 48.137 162.969 48.2219L176.824 41.2995L177.054 37.5497L182.769 37.1564L183.075 45.7044L164.561 51.8165C164.409 52.4641 164.064 53.0504 163.571 53.4975C163.078 53.9446 162.461 54.2312 161.8 54.3193C161.14 54.4073 160.469 54.2926 159.875 53.9904C159.282 53.6882 158.795 53.2128 158.479 52.6275C158.163 52.0422 158.033 51.3747 158.106 50.7138C158.179 50.053 158.452 49.43 158.889 48.9279C159.326 48.4258 159.905 48.0683 160.55 47.903C161.196 47.7377 161.876 47.7724 162.501 48.0024L162.501 48.0035Z" fill="#FEB8B8"/>
<path d="M180.195 25.4627C183.603 26.6634 184.204 39.6735 184.204 39.6735C180.194 37.472 175.381 41.0744 175.381 41.0744C175.381 41.0744 174.379 37.6718 173.176 33.2691C172.813 32.0306 172.769 30.7205 173.05 29.4607C173.33 28.201 173.925 27.0325 174.78 26.0641C174.78 26.0641 176.786 24.2613 180.195 25.4627Z" fill="#E6E6E6"/>
<path d="M176.202 12.7145C175.246 11.9511 173.942 13.3381 173.942 13.3381L173.177 6.46952C173.177 6.46952 168.398 7.04109 165.338 6.27863C162.278 5.51617 161.801 9.04678 161.801 9.04678C161.643 7.62094 161.611 6.18402 161.705 4.7526C161.896 3.03501 164.382 1.31743 168.779 0.172302C173.177 -0.972828 175.471 3.98925 175.471 3.98925C178.532 5.51484 177.159 13.4787 176.202 12.7145Z" fill="#2F2E41"/>
<path d="M190 123.515H26.4014V124H190V123.515Z" fill="#E6E6E6"/>
<path d="M42.1834 114.951C42.8835 115.196 43.6351 115.258 44.3659 115.129C45.0967 115.001 45.782 114.687 46.3558 114.217C47.8172 112.993 48.2753 110.976 48.6481 109.108L49.7507 103.584L47.4422 105.171C45.782 106.311 44.0846 107.489 42.9349 109.142C41.7852 110.795 41.2836 113.051 42.2072 114.839" fill="#E6E6E6"/>
<path d="M42.5406 122.023C42.25 119.91 41.9511 117.77 42.155 115.634C42.336 113.737 42.9158 111.885 44.0961 110.366C44.7226 109.561 45.4848 108.872 46.3487 108.329C46.5739 108.187 46.7813 108.543 46.557 108.684C45.062 109.627 43.9056 111.019 43.2546 112.661C42.5357 114.486 42.4204 116.475 42.5446 118.413C42.6196 119.586 42.7782 120.75 42.9382 121.913C42.9508 121.966 42.9429 122.021 42.9161 122.068C42.8893 122.115 42.8457 122.15 42.794 122.167C42.7412 122.181 42.685 122.174 42.6375 122.147C42.5899 122.12 42.555 122.075 42.5402 122.023L42.5406 122.023Z" fill="#F2F2F2"/>
<path d="M44.6318 118.633C44.9321 119.088 45.3448 119.459 45.8301 119.709C46.3155 119.959 46.8573 120.08 47.4031 120.06C48.806 119.994 49.9756 119.017 51.0284 118.089L54.1424 115.345L52.0815 115.247C50.5995 115.176 49.0791 115.11 47.6665 115.566C46.2539 116.022 44.9529 117.12 44.6948 118.578" fill="#E6E6E6"/>
<path d="M41.7193 123.238C43.1171 120.767 44.7407 118.021 47.6397 117.144C48.4458 116.901 49.2911 116.814 50.1299 116.887C50.3944 116.909 50.3283 117.317 50.0634 117.294C48.6572 117.177 47.2538 117.548 46.0894 118.343C44.9687 119.105 44.0964 120.163 43.358 121.286C42.9056 121.972 42.5005 122.69 42.0954 123.406C41.9663 123.634 41.5891 123.469 41.7193 123.238Z" fill="#F2F2F2"/>
<path d="M140.31 51.952H70.2706C69.9268 51.9516 69.5971 51.8151 69.354 51.5724C69.1108 51.3297 68.974 51.0007 68.9736 50.6574V33.3157C68.974 32.9725 69.1108 32.6435 69.354 32.4008C69.5971 32.1581 69.9268 32.0215 70.2706 32.0211H140.31C140.654 32.0215 140.984 32.1581 141.227 32.4008C141.47 32.6435 141.607 32.9725 141.607 33.3157V50.6574C141.607 51.0007 141.47 51.3297 141.227 51.5724C140.984 51.8151 140.654 51.9516 140.31 51.952ZM70.2706 32.5391C70.0643 32.5393 69.8665 32.6212 69.7206 32.7669C69.5747 32.9125 69.4926 33.11 69.4924 33.3159V50.6577C69.4925 50.8636 69.5746 51.0611 69.7205 51.2068C69.8664 51.3524 70.0643 51.4343 70.2706 51.4345H140.31C140.517 51.4343 140.715 51.3524 140.86 51.2068C141.006 51.0611 141.088 50.8636 141.089 50.6577V33.3157C141.088 33.1097 141.006 32.9123 140.86 32.7666C140.715 32.6209 140.517 32.539 140.31 32.5389L70.2706 32.5391Z" fill="#E6E6E6"/>
<path d="M93.3562 37.8052C93.1226 37.8052 92.8986 37.8978 92.7335 38.0626C92.5684 38.2275 92.4756 38.451 92.4756 38.6841C92.4756 38.9172 92.5684 39.1408 92.7335 39.3056C92.8986 39.4705 93.1226 39.5631 93.3562 39.5631H134.868C135.102 39.5631 135.326 39.4705 135.491 39.3056C135.656 39.1408 135.749 38.9172 135.749 38.6841C135.749 38.451 135.656 38.2275 135.491 38.0626C135.326 37.8978 135.102 37.8052 134.868 37.8052H93.3562Z" fill="#E6E6E6"/>
<path d="M93.3562 43.0791C93.1226 43.0791 92.8986 43.1717 92.7335 43.3365C92.5684 43.5014 92.4756 43.7249 92.4756 43.958C92.4756 44.1912 92.5684 44.4147 92.7335 44.5796C92.8986 44.7444 93.1226 44.837 93.3562 44.837H111.219C111.453 44.837 111.677 44.7444 111.842 44.5796C112.007 44.4147 112.1 44.1912 112.1 43.958C112.1 43.7249 112.007 43.5014 111.842 43.3365C111.677 43.1717 111.453 43.0791 111.219 43.0791H93.3562Z" fill="#E6E6E6"/>
<path d="M81.2034 46.5548C84.1213 46.5548 86.4868 44.1937 86.4868 41.2811C86.4868 38.3685 84.1213 36.0074 81.2034 36.0074C78.2854 36.0074 75.9199 38.3685 75.9199 41.2811C75.9199 44.1937 78.2854 46.5548 81.2034 46.5548Z" fill="#E6E6E6"/>
<path d="M80.3729 44.2121C80.1954 44.2123 80.0226 44.155 79.8806 44.0486L79.8717 44.042L78.0174 42.626C77.8438 42.4933 77.7302 42.2971 77.7015 42.0808C77.6728 41.8644 77.7313 41.6455 77.8643 41.4722C77.9973 41.299 78.1938 41.1855 78.4106 41.1569C78.6273 41.1282 78.8467 41.1867 79.0202 41.3194L80.2214 42.2387L83.0597 38.5427C83.1926 38.3696 83.3889 38.2564 83.6055 38.2278C83.822 38.1992 84.0411 38.2577 84.2145 38.3903L84.197 38.4147L84.2151 38.3903C84.3883 38.5231 84.5016 38.7191 84.5302 38.9353C84.5588 39.1514 84.5003 39.37 84.3676 39.5432L81.0292 43.8912C80.952 43.9913 80.8527 44.0723 80.739 44.1279C80.6254 44.1835 80.5004 44.2122 80.3738 44.2118L80.3729 44.2121Z" fill="#6C63FF"/>
</g>
<defs>
<clipPath id="clip0_126_841">
<rect width="190" height="124" fill="white"/>
</clipPath>
</defs>
</svg>
