<svg width="445" height="329" viewBox="0 0 445 329" fill="none" xmlns="http://www.w3.org/2000/svg">
<g clip-path="url(#clip0_126_882)">
<path d="M402.948 327.476H308.593V324.586C308.593 322.077 309.592 319.671 311.369 317.897C313.147 316.123 315.558 315.126 318.072 315.126H393.469C395.983 315.126 398.394 316.123 400.172 317.897C401.95 319.671 402.948 322.077 402.948 324.586V327.476Z" fill="#E6E6E6"/>
<path d="M353.563 315.702L356.432 314.549C326.409 240.172 329.301 146.339 354.68 65.8467C357.695 56.5205 357.913 46.5182 355.306 37.0703C352.699 27.6225 347.382 19.1411 340.009 12.6698C325.278 -0.450172 304.969 -3.64631 287.005 4.32782C269.273 12.2002 266.829 25.9127 266.829 39.5585H269.923C269.923 24.9923 273.042 13.9064 288.263 7.14894C305.099 -0.324286 324.138 2.67323 337.949 14.9738C344.874 21.0518 349.869 29.0177 352.317 37.8915C354.765 46.7654 354.561 56.16 351.729 64.9195C326.057 146.341 323.334 240.819 353.563 315.702Z" fill="#E6E6E6"/>
<path d="M269.149 85.1004C275.129 85.1004 279.977 80.2622 279.977 74.2939C279.977 68.3256 275.129 63.4873 269.149 63.4873C263.169 63.4873 258.321 68.3256 258.321 74.2939C258.321 80.2622 263.169 85.1004 269.149 85.1004Z" fill="#E6E6E6"/>
<path d="M252.474 93.1328V72.6569H255.664V93.1328C256.579 93.5022 257.337 94.1778 257.807 95.0437C258.278 95.9096 258.433 96.912 258.244 97.879C258.055 98.846 257.536 99.7175 256.774 100.344C256.012 100.971 255.056 101.313 254.069 101.313C253.082 101.313 252.125 100.971 251.364 100.344C250.602 99.7175 250.082 98.846 249.894 97.879C249.705 96.912 249.86 95.9096 250.33 95.0437C250.801 94.1778 251.559 93.5022 252.474 93.1328Z" fill="#E6E6E6"/>
<path d="M237.053 56.926C237.058 52.2191 238.934 47.7065 242.269 44.3782C245.604 41.0499 250.125 39.1777 254.841 39.1724H284.23C288.948 39.1724 293.473 41.0428 296.809 44.3723C300.145 47.7017 302.019 52.2174 302.019 56.926C302.019 61.6346 300.145 66.1503 296.809 69.4797C293.473 72.8092 288.948 74.6797 284.23 74.6797H254.841C250.125 74.6743 245.604 72.8021 242.269 69.4738C238.934 66.1455 237.058 61.6329 237.053 56.926Z" fill="#6C63FF"/>
<path d="M195.645 166.868C198.596 129.19 213.683 111.238 204.022 99.9798C194.769 89.1962 168.703 91.4238 151.963 101.771C106.812 129.682 90.2702 240.92 148.373 295.269C203.585 346.914 308.223 330.373 331.477 288.102C336.903 278.239 341.213 260.949 333.272 250.478C313.557 224.481 241.876 271.569 210.006 242.117C191.119 224.663 194.025 187.546 195.645 166.868Z" fill="#3F3D56"/>
<path d="M230.159 148.149C229.062 148.652 228.206 149.563 227.772 150.687C227.338 151.811 227.36 153.06 227.834 154.168C227.934 154.392 228.053 154.607 228.188 154.811L218.497 167.726L223.333 174.939L234.692 155.815C235.497 155.189 236.071 154.314 236.326 153.328C236.58 152.341 236.5 151.299 236.098 150.362C235.864 149.832 235.528 149.352 235.109 148.951C234.689 148.55 234.195 148.236 233.654 148.026C233.112 147.815 232.535 147.714 231.954 147.726C231.374 147.739 230.801 147.865 230.27 148.099C230.233 148.115 230.196 148.132 230.159 148.149Z" fill="#FFB6B6"/>
<path d="M230.151 170.416C230.785 170.977 229.026 171.67 227.165 170.577C226.633 170.261 226.405 170.129 226.345 170.213C226.196 170.422 227.069 171.963 226.836 175.385C226.692 177.427 223.294 181.267 219.434 185.012C214.216 190.076 208.149 194.961 208.149 194.961L206.018 193.259L183.681 175.385L179.911 170.177C180.256 168.121 180.775 166.097 181.461 164.127C182.406 161.401 183.53 158.74 184.824 156.16C185.518 154.757 186.23 153.419 186.912 152.189L198.88 165.352L208.909 176.376C208.909 176.376 211.829 171.682 214.091 170.404C214.379 170.22 214.707 170.108 215.048 170.076C217.334 169.968 217.471 168.726 214.821 166.02C212.17 163.315 215.515 165.841 217.872 165.113C220.23 164.384 217.872 165.113 218.369 163.291C218.866 161.47 225.478 157.815 225.478 157.815L225.753 158.06L230.75 162.461L232.18 163.721C232.18 163.721 230.618 167.997 230.187 168.899C229.756 169.801 229.523 169.849 230.151 170.416Z" fill="#6C63FF"/>
<path d="M361.865 253.378L362.108 246.791L336.766 242.719L336.406 252.441L361.865 253.378Z" fill="#FFB6B6"/>
<path d="M357.264 255.361L357.023 244.814L361.541 244.981L368.835 235.23C369.195 234.748 369.7 234.394 370.276 234.219C370.852 234.044 371.469 234.058 372.037 234.258C372.605 234.458 373.094 234.834 373.433 235.33C373.771 235.827 373.942 236.419 373.92 237.02L373.457 249.549L368.908 251.544L373.346 252.552L373.171 257.276L357.264 255.361Z" fill="#2F2E41"/>
<path d="M219.235 255.943L299.504 257.974C299.504 257.974 334.167 259.972 342.299 254.692L350.875 253.612L351.34 241.039C351.34 241.039 346.096 241.077 343.081 239.675C340.066 238.273 342.161 236.557 339.286 238.244C336.412 239.931 336.715 240.134 334.492 239.359C332.27 238.584 230.344 223.078 230.344 223.078L219.235 255.943Z" fill="#2F2E41"/>
<path d="M325.008 250.487L329.676 245.823L313.872 225.635L306.983 232.519L325.008 250.487Z" fill="#FFB6B6"/>
<path d="M320.284 246.43L327.295 238.534L330.494 241.723L342.485 239.526C343.078 239.417 343.689 239.5 344.231 239.763C344.772 240.026 345.215 240.455 345.496 240.987C345.776 241.519 345.878 242.126 345.788 242.72C345.697 243.315 345.419 243.864 344.994 244.29L336.116 253.16L331.422 251.535L333.988 255.286L330.641 258.631L320.284 246.43Z" fill="#2F2E41"/>
<path d="M187.566 212.068L188.364 230.582C189.304 252.376 213.352 265.567 232 254.188C232.344 253.978 232.689 253.761 233.035 253.536C233.035 253.536 240.104 251.641 239.889 248.64C239.675 245.64 241.402 244.179 242.93 244.998C244.459 245.816 264.47 217.472 264.47 217.472C264.47 217.472 306.046 238.17 315.218 243.043C315.218 243.043 323.842 229.586 323.216 229.727C322.591 229.868 271.781 194.375 271.781 194.375C271.781 194.375 263.504 186.014 253.236 191.534C253.022 192.345 253.205 192.374 253.205 192.374L219.286 219.958L214.493 210.874L187.566 212.068Z" fill="#2F2E41"/>
<path d="M219.548 188.924C219.483 189.779 219.361 190.629 219.183 191.468C218.938 192.682 218.545 193.862 218.01 194.979C218.01 194.979 218.01 196.228 215.616 200.408C213.223 204.589 216.215 202.797 218.01 205.902C219.805 209.002 218.01 207.575 216.017 209.569C215.444 210.15 215.036 210.873 214.837 211.664C214.638 212.455 214.655 213.284 214.886 214.066C214.886 214.066 189.18 214.084 184.393 212.293C179.606 210.501 178.517 200.408 182.807 199.411C187.092 198.413 181.509 197.422 178.99 195.123C176.47 192.823 181.509 189.061 181.509 189.061C181.509 189.061 179.432 185.484 179.606 173.474C179.63 172.369 179.732 171.268 179.911 170.177C180.256 168.121 180.775 166.097 181.461 164.127C182.406 161.401 183.529 158.74 184.824 156.16C185.518 154.757 186.23 153.419 186.912 152.189C187.02 151.998 187.122 151.813 187.229 151.628C188.528 149.334 189.713 147.459 190.496 146.259C191.101 145.327 191.466 144.801 191.466 144.801L195.822 137.241L210.363 144.043L209.537 155.169L212.044 163.56L213.199 167.424L214.09 170.404L215.467 175.02C215.467 175.02 215.09 175.038 215.539 175.654C217.605 178.396 218.945 181.615 219.434 185.012C219.606 186.308 219.644 187.619 219.548 188.924Z" fill="#6C63FF"/>
<path d="M261.539 190.123L261.266 190.035L226.464 178.849L239.288 136.858C239.544 136.022 239.986 135.255 240.582 134.614C241.177 133.973 241.911 133.476 242.728 133.159C243.544 132.842 244.422 132.715 245.295 132.786C246.168 132.857 247.013 133.125 247.767 133.57L270.007 146.684C271.768 147.721 273.107 149.342 273.791 151.265C274.476 153.187 274.461 155.289 273.751 157.202L261.539 190.123Z" fill="#2F2E41"/>
<path d="M261.68 192.792L226.598 181.517L239.422 139.526C239.678 138.69 240.12 137.922 240.716 137.281C241.311 136.641 242.045 136.143 242.861 135.826C243.678 135.51 244.556 135.382 245.428 135.453C246.301 135.525 247.147 135.792 247.901 136.237L271.203 147.848C274.704 149.912 274.622 155.254 272.996 159.636L261.68 192.792Z" fill="#6C63FF"/>
<path d="M258.168 195.831C257.361 196.286 256.467 196.569 255.544 196.66C254.621 196.752 253.689 196.651 252.807 196.364L230.383 189.156C228.663 188.596 227.23 187.385 226.392 185.784C225.553 184.184 225.375 182.319 225.895 180.589L237.138 143.778C237.362 143.043 237.732 142.36 238.224 141.769C238.717 141.178 239.323 140.691 240.007 140.337C240.691 139.982 241.438 139.768 242.206 139.706C242.974 139.644 243.746 139.736 244.478 139.976L267.716 147.591C268.823 147.954 269.847 148.534 270.725 149.298C271.604 150.062 272.32 150.994 272.832 152.039C273.344 153.084 273.64 154.221 273.704 155.382C273.768 156.544 273.599 157.706 273.205 158.801L261.185 192.247C260.645 193.766 259.574 195.039 258.168 195.831Z" fill="#3F3D56"/>
<path d="M209.541 137.37C218.411 137.37 225.602 130.193 225.602 121.34C225.602 112.487 218.411 105.31 209.541 105.31C200.67 105.31 193.479 112.487 193.479 121.34C193.479 130.193 200.67 137.37 209.541 137.37Z" fill="#FFB6B6"/>
<path d="M155.229 137.611C156.703 140.463 159.12 142.718 162.069 143.993C163.247 144.529 164.484 144.919 165.756 145.158C166.115 143.735 166.69 142.376 167.461 141.128C167.204 142.535 167.204 143.977 167.461 145.385C169.398 145.543 171.347 145.301 173.186 144.675C174.993 144.062 176.631 143.037 177.971 141.682C179.312 140.327 180.317 138.678 180.908 136.868C182.187 132.619 180.809 128.081 180.701 123.645C180.589 119.21 182.699 113.905 187.111 113.356C190.471 112.937 190.055 113.262 192.47 115.631C189.093 119.375 197.325 135.958 201.743 135.225C204.24 134.811 206.078 132.832 206.572 132.9C209.102 139.083 201.493 147.852 207.528 150.73L207.08 150.139C203.921 144.93 213.268 136.134 210.109 130.925C209.229 129.468 208.313 127.76 208.858 126.149C209.375 124.616 211.994 124.131 212.546 125.526C211.648 122.329 214.156 118.577 217.486 118.251C220.445 117.959 220.274 118.801 223.095 119.569C223.455 118.356 223.975 117.196 224.64 116.119C224.414 117.348 224.387 118.604 224.557 119.842C225.575 119.963 226.604 119.746 227.485 119.223C230.09 117.665 230.167 113.642 228.378 111.193C226.585 108.744 223.582 107.535 220.685 106.62C220.658 100.505 204.173 97.5775 201.141 103.263C200.829 98.6595 195.542 95.5587 190.988 96.3406C186.433 97.1226 182.84 100.767 180.65 104.83C178.46 108.889 177.372 113.434 175.769 117.758C174.166 122.082 171.874 126.393 168.034 128.959C164.195 131.521 158.49 131.754 155.285 128.433C154.554 129.851 154.168 131.421 154.158 133.015C154.149 134.61 154.516 136.185 155.229 137.611Z" fill="#2F2E41"/>
<path d="M171.709 210.914C172.041 210.649 172.402 210.421 172.784 210.235C178.932 207.181 198.049 199.255 212.997 199.58C241.759 200.206 278.362 231.886 269.843 253.161C263.361 269.349 231.136 278.559 207.612 271.193C174.657 260.873 161.649 218.92 171.709 210.914Z" fill="#3F3D56"/>
<path d="M52.3075 327.537C42.9093 325.768 34.5902 283.51 53.0809 262.698C59.416 255.567 67.3183 252.464 77.8298 249.575C138.331 232.952 184.475 248.795 190.677 252.663C196.864 256.523 207.711 314.674 193.84 322.906C186.036 327.537 170.568 329.853 162.904 324.45C151.627 316.499 170.556 295.876 162.131 281.995C152.57 266.243 102.226 260.937 76.9863 276.592C50.0577 293.294 105.602 337.572 52.3075 327.537Z" fill="#F2F2F2"/>
<path d="M115.142 255.69H79.2376C70.3743 247.212 64.037 239.041 69.1107 232.259C69.1107 230.31 69.8866 228.44 71.2678 227.062C72.649 225.683 74.5224 224.909 76.4757 224.909H117.904C119.857 224.909 121.73 225.683 123.112 227.062C124.493 228.44 125.269 230.31 125.269 232.259C127.201 239.987 123.749 247.798 115.142 255.69Z" fill="#CCCCCC"/>
<path d="M108.694 215.655C108.354 215.671 108.017 215.581 107.728 215.399C107.44 215.217 107.215 214.951 107.084 214.637C106.952 214.323 106.92 213.976 106.993 213.644C107.065 213.311 107.239 213.009 107.489 212.778L107.603 212.326C107.588 212.29 107.573 212.253 107.558 212.217C107.215 211.408 106.639 210.718 105.905 210.234C105.17 209.751 104.308 209.494 103.428 209.497C102.548 209.501 101.688 209.763 100.957 210.253C100.226 210.742 99.656 211.436 99.3188 212.248C97.9713 215.487 96.2557 218.731 95.8333 222.156C95.6472 223.67 95.7257 225.205 96.0652 226.692C92.9003 219.801 91.2568 212.312 91.2462 204.732C91.2456 202.83 91.3515 200.929 91.5634 199.039C91.7386 197.49 91.9816 195.951 92.2924 194.423C93.9888 186.135 97.6309 178.366 102.92 171.755C105.479 170.361 107.55 168.217 108.851 165.613C109.323 164.677 109.656 163.678 109.84 162.646C109.552 162.684 108.752 158.295 108.969 158.025C108.567 157.416 107.847 157.113 107.407 156.518C105.222 153.561 102.21 154.077 100.638 158.096C97.2797 159.788 97.2471 162.594 99.3078 165.292C100.619 167.008 100.799 169.331 101.949 171.169C101.831 171.32 101.708 171.467 101.589 171.618C99.4261 174.394 97.5406 177.376 95.96 180.519C96.3444 176.997 95.8856 173.435 94.6214 170.125C93.3402 167.04 90.9386 164.442 88.8238 161.775C86.2835 158.572 81.0745 159.97 80.627 164.031C80.6226 164.07 80.6184 164.109 80.6143 164.148C80.9284 164.325 81.2359 164.513 81.5367 164.712C81.9147 164.964 82.2076 165.324 82.377 165.745C82.5464 166.166 82.5844 166.628 82.4861 167.071C82.3878 167.514 82.1577 167.917 81.826 168.227C81.4942 168.537 81.0764 168.74 80.6271 168.809L80.5811 168.816C80.693 169.946 80.8909 171.066 81.1729 172.166C78.4598 182.638 84.3171 186.452 92.6806 186.623C92.8652 186.718 93.0451 186.812 93.2297 186.902C91.6417 191.394 90.6455 196.072 90.2664 200.82C90.0518 203.622 90.0644 206.436 90.3043 209.235L90.2901 209.135C89.6841 206.023 88.0204 203.214 85.58 201.184C81.9553 198.212 76.8343 197.118 72.9239 194.729C72.5083 194.463 72.0251 194.321 71.5312 194.32C71.0374 194.319 70.5535 194.458 70.1366 194.723C69.7197 194.987 69.3873 195.365 69.1784 195.811C68.9696 196.258 68.8931 196.755 68.958 197.243C68.9632 197.278 68.9686 197.313 68.974 197.348C69.5569 197.585 70.1245 197.858 70.6734 198.165C70.9875 198.342 71.295 198.53 71.5958 198.728C71.9738 198.98 72.2667 199.34 72.4361 199.761C72.6054 200.182 72.6435 200.645 72.5452 201.088C72.4468 201.531 72.2168 201.933 71.885 202.244C71.5533 202.554 71.1355 202.757 70.6863 202.826L70.6402 202.833C70.6071 202.838 70.5787 202.842 70.5456 202.847C71.5416 205.221 72.9395 207.405 74.6781 209.306C76.3745 218.447 83.6607 219.314 91.4545 216.652H91.4593C92.3144 220.361 93.5534 223.971 95.1564 227.424H108.364C108.411 227.278 108.453 227.126 108.496 226.98C107.274 227.057 106.046 226.984 104.842 226.763C105.821 225.563 106.801 224.353 107.781 223.153C107.803 223.131 107.824 223.107 107.843 223.082C108.34 222.468 108.842 221.859 109.339 221.244L109.339 221.244C109.365 219.361 109.149 217.483 108.695 215.655L108.694 215.655Z" fill="#CCCCCC"/>
<path d="M153.741 253.77C153.96 254.406 154.376 254.957 154.928 255.343C155.48 255.729 156.141 255.931 156.815 255.919L169.987 255.58C170.666 255.567 171.323 255.335 171.859 254.919C172.395 254.502 172.781 253.924 172.96 253.27L174.824 233.377C175.486 233.676 176.206 233.824 176.931 233.809C178.205 233.777 179.414 233.242 180.292 232.321C181.17 231.399 181.645 230.167 181.613 228.896C181.581 227.625 181.044 226.419 180.121 225.543C179.198 224.666 177.964 224.192 176.69 224.224C176.4 224.223 176.111 224.253 175.827 224.314C175.519 223.98 175.144 223.715 174.726 223.536C174.309 223.356 173.858 223.265 173.404 223.27L153.143 223.792C152.975 223.798 152.808 223.819 152.643 223.854C152.199 223.937 151.777 224.113 151.407 224.372C151.037 224.631 150.727 224.966 150.497 225.355C150.268 225.743 150.124 226.176 150.076 226.625C150.029 227.074 150.078 227.527 150.22 227.955L153.741 253.77ZM175.207 232.027L176.533 227.286C176.684 226.739 176.687 226.161 176.543 225.612C176.607 225.612 176.664 225.581 176.729 225.581C177.638 225.562 178.517 225.904 179.174 226.532C179.832 227.16 180.212 228.022 180.234 228.929C180.255 229.837 179.915 230.715 179.288 231.373C178.661 232.031 177.799 232.413 176.889 232.437C176.302 232.456 175.72 232.314 175.207 232.027Z" fill="#CCCCCC"/>
<path d="M152.644 223.854C153.075 226.317 157.928 228.049 163.764 227.748C169.13 227.501 173.517 225.621 174.321 223.392C174.024 223.304 173.714 223.263 173.404 223.27L153.143 223.792C152.975 223.798 152.808 223.819 152.644 223.854Z" fill="white"/>
<path d="M0.705402 328.47L444.295 328.651C444.482 328.651 444.661 328.577 444.793 328.445C444.926 328.313 445 328.134 445 327.947C445 327.761 444.926 327.582 444.793 327.45C444.661 327.318 444.482 327.243 444.295 327.243L0.705402 327.062C0.518317 327.062 0.338896 327.136 0.206607 327.268C0.0743179 327.4 0 327.579 0 327.766C0 327.952 0.0743179 328.132 0.206607 328.264C0.338896 328.396 0.518317 328.47 0.705402 328.47Z" fill="#CACACA"/>
<path d="M249.501 171.126C248.294 171.17 247.153 171.682 246.319 172.553C245.485 173.424 245.025 174.586 245.036 175.79C245.042 176.035 245.068 176.279 245.115 176.52L231.193 184.723L232.878 193.237L250.732 179.943C251.716 179.673 252.583 179.086 253.198 178.273C253.813 177.46 254.141 176.467 254.131 175.448C254.119 174.869 253.994 174.297 253.761 173.766C253.528 173.235 253.193 172.755 252.774 172.353C252.355 171.951 251.862 171.636 251.321 171.425C250.78 171.213 250.203 171.111 249.622 171.122C249.582 171.123 249.541 171.124 249.501 171.126Z" fill="#FFB6B6"/>
<path d="M238.097 190.682C237.724 190.184 237.564 189.975 237.48 190.032C237.262 190.164 237.471 191.923 235.938 194.989C233.78 199.297 211.148 205.894 211.148 205.894L208.362 200.802L196.106 178.428L191.881 160.495C191.733 159.87 191.662 159.229 191.667 158.586C195.434 155.941 199.434 153.643 203.618 151.721C205.289 152.667 206.564 154.183 207.208 155.99L215.645 179.6L219.011 189.026C219.011 189.026 224.95 184.788 227.104 185.566C229.255 186.349 229.866 185.251 228.46 181.737C227.054 178.224 229.165 181.841 231.62 182.07C234.081 182.304 231.62 182.07 232.782 180.579C233.945 179.088 241.458 178.249 241.458 178.249L241.618 178.582L244.53 184.56L245.364 186.278C245.364 186.278 242.277 189.621 241.532 190.287C240.784 190.958 240.552 190.911 240.919 191.676C241.28 192.437 239.39 192.402 238.097 190.682Z" fill="#6C63FF"/>
</g>
<defs>
<clipPath id="clip0_126_882">
<rect width="445" height="329" fill="white"/>
</clipPath>
</defs>
</svg>
